<svg xmlns="http://www.w3.org/2000/svg" width="78" height="78" viewBox="0 0 78 78">
  <g id="Group_2820" data-name="Group 2820" transform="translate(-404 -790)">
    <g id="Group_2768" data-name="Group 2768" transform="translate(404.664 811.889)">
      <path id="Path_4398" data-name="Path 4398" d="M23.255,4.24V30.116H17.3V13.246h-5.96V8.762l2.156-.18C16.9,8.33,18.339,7.149,18.7,4.24Z" transform="translate(0 0.158)" fill="#005ae2" stroke="rgba(0,0,0,0)" stroke-width="1"/>
      <path id="Path_4399" data-name="Path 4399" d="M25.137,20.19c3.338-2.726,5.777-4.774,5.777-7.36A3.364,3.364,0,0,0,27.4,9.205a3.608,3.608,0,0,0-3.592,3.879,7.075,7.075,0,0,0,.4,2.332H18.534a7.61,7.61,0,0,1-.47-2.724c0-5.134,4.344-8.581,9.512-8.581,5.673,0,9.3,3.409,9.3,8.33,0,3.981-2.691,6.814-5.96,9.436l-4.09,3.269H36.981v5.127H18.246V25.9Z" transform="translate(8.243 0)" fill="#005ae2" stroke="rgba(0,0,0,0)" stroke-width="1"/>
      <path id="Path_4400" data-name="Path 4400" d="M27.113,22.663l5.851-.93a4.159,4.159,0,0,0,4.268,3.986c2.156,0,3.808-1.113,3.808-3.267,0-2.119-1.725-2.944-4.164-2.944h-2.4V14.735h2.335c2.254,0,3.728-.866,3.728-2.8,0-1.76-1.22-2.873-3.263-2.873-2.225,0-3.665,1.618-4.026,3.808l-5.486-.648c.61-4.491,4.126-8.112,9.763-8.112,5.45,0,8.793,3.16,8.793,7.429a5.76,5.76,0,0,1-3.485,5.455,6.014,6.014,0,0,1,4.059,5.96c0,4.235-3.694,7.716-9.55,7.716C31.96,30.67,27.83,27.906,27.113,22.663Z" transform="translate(19.332 0)" fill="#005ae2" stroke="rgba(0,0,0,0)" stroke-width="1" opacity="0.2"/>
    </g>
    <rect id="Rectangle_4368" data-name="Rectangle 4368" width="78" height="78" transform="translate(404 790)" fill="none"/>
  </g>
</svg>
