<svg xmlns="http://www.w3.org/2000/svg" width="41.134" height="41.135" viewBox="0 0 41.134 41.135">
  <g id="Group_2771" data-name="Group 2771" transform="translate(90.57 7.495)">
    <g id="Group_2769" data-name="Group 2769" transform="translate(-88.57 -5.495)" opacity="0.2">
      <path id="Path_4401" data-name="Path 4401" d="M-88.57,8.194v-11.9a1.791,1.791,0,0,1,1.786-1.786h11.9" transform="translate(88.57 5.495)" fill="none" stroke="#005ae2" stroke-linecap="round" stroke-linejoin="round" stroke-width="4"/>
      <path id="Path_4402" data-name="Path 4402" d="M-88.57,8.194v-11.9a1.791,1.791,0,0,1,1.786-1.786h11.9" transform="translate(88.57 5.495)" fill="none" stroke="#005ae2" stroke-linecap="round" stroke-linejoin="round" stroke-width="4"/>
      <path id="Path_4403" data-name="Path 4403" d="M-74.882,40.313h-11.9a1.792,1.792,0,0,1-1.786-1.786v-11.9" transform="translate(88.57 -3.178)" fill="none" stroke="#005ae2" stroke-linecap="round" stroke-linejoin="round" stroke-width="4"/>
      <path id="Path_4404" data-name="Path 4404" d="M-42.763,26.624v11.9a1.792,1.792,0,0,1-1.787,1.786h-11.9" transform="translate(79.897 -3.178)" fill="none" stroke="#005ae2" stroke-linecap="round" stroke-linejoin="round" stroke-width="4"/>
      <path id="Path_4405" data-name="Path 4405" d="M-56.451-5.495h11.9a1.792,1.792,0,0,1,1.787,1.786v11.9" transform="translate(79.897 5.495)" fill="none" stroke="#005ae2" stroke-linecap="round" stroke-linejoin="round" stroke-width="4"/>
    </g>
    <g id="Group_2770" data-name="Group 2770" transform="translate(-80.208 3.314)">
      <path id="Path_4406" data-name="Path 4406" d="M-64.208,6.572l7.471,20.322H-61.52l-1.472-4.075h-7.981l-1.472,4.075h-4.67l7.5-20.322Zm-5.349,12.341h5.122l-2.575-7.1Z" transform="translate(77.115 -6.572)" fill="#005ae2" stroke="rgba(0,0,0,0)" stroke-width="1"/>
    </g>
  </g>
</svg>
