<svg xmlns="http://www.w3.org/2000/svg" width="24.065" height="24.067" viewBox="0 0 24.065 24.067">
  <g id="exclamation-mark" transform="translate(-249.396 -807.157)">
    <path id="Path_4349" data-name="Path 4349" d="M10.489,0A10.488,10.488,0,1,1,0,10.488,10.488,10.488,0,0,1,10.489,0Z" transform="translate(249.396 827.864) rotate(-80.783)" fill="#eb2e29"/>
    <path id="Path_4347" data-name="Path 4347" d="M290.584,835.509a1.1,1.1,0,0,1-1.1-1.1v-9.6a1.1,1.1,0,1,1,2.193,0v9.6A1.1,1.1,0,0,1,290.584,835.509Z" transform="translate(-29.156 -12.062)" fill="#fff"/>
    <path id="Path_4348" data-name="Path 4348" d="M290.587,872.974a1.1,1.1,0,1,1,.776-.321A1.1,1.1,0,0,1,290.587,872.974Z" transform="translate(-29.158 -46.267)" fill="#fff"/>
  </g>
</svg>
