<svg xmlns="http://www.w3.org/2000/svg" width="78" height="78" viewBox="0 0 78 78">
  <g id="icon-RC" transform="translate(-368 -156)">
    <circle id="Ellipse_69" data-name="Ellipse 69" cx="39" cy="39" r="39" transform="translate(368 156)" fill="#ffbb1d" opacity="0.15"/>
    <g id="Group_2471" data-name="Group 2471" transform="translate(176.338 27.665)">
      <path id="Path_4337" data-name="Path 4337" d="M241.269,184.377V180.2a.082.082,0,0,1,.018-.047s6.02-6.156,6.02-10.7a12.54,12.54,0,0,0-25.081,0c0,4.548,6.019,10.7,6.019,10.7a.078.078,0,0,1,.019.047v4.176" transform="translate(-3.605 -3.651)" fill="none" stroke="#ffbb1d" stroke-linecap="round" stroke-linejoin="round" stroke-width="2"/>
      <line id="Line_64" data-name="Line 64" transform="translate(231.164 180.726)" fill="none" stroke="#ffbb1d" stroke-linecap="round" stroke-linejoin="round" stroke-width="2"/>
      <line id="Line_65" data-name="Line 65" y1="11.551" transform="translate(231.164 166.729)" fill="none" stroke="#ffbb1d" stroke-linecap="round" stroke-linejoin="round" stroke-width="2"/>
      <line id="Line_66" data-name="Line 66" y1="3.354" transform="translate(231.164 145.335)" fill="none" stroke="#ffbb1d" stroke-linecap="round" stroke-linejoin="round" stroke-width="2"/>
      <line id="Line_67" data-name="Line 67" x1="2.377" y1="2.372" transform="translate(216.759 151.299)" fill="none" stroke="#ffbb1d" stroke-linecap="round" stroke-linejoin="round" stroke-width="2"/>
      <line id="Line_68" data-name="Line 68" x1="3.645" transform="translate(210.795 165.705)" fill="none" stroke="#ffbb1d" stroke-linecap="round" stroke-linejoin="round" stroke-width="2"/>
      <line id="Line_69" data-name="Line 69" x1="2.664" y2="2.664" transform="translate(216.759 177.442)" fill="none" stroke="#ffbb1d" stroke-linecap="round" stroke-linejoin="round" stroke-width="2"/>
      <line id="Line_70" data-name="Line 70" y1="2.372" x2="2.372" transform="translate(243.193 151.299)" fill="none" stroke="#ffbb1d" stroke-linecap="round" stroke-linejoin="round" stroke-width="2"/>
      <line id="Line_71" data-name="Line 71" transform="translate(243.193 153.671)" fill="none" stroke="#ffbb1d" stroke-linecap="round" stroke-linejoin="round" stroke-width="2"/>
      <line id="Line_72" data-name="Line 72" x2="3.481" transform="translate(248.047 165.705)" fill="none" stroke="#ffbb1d" stroke-linecap="round" stroke-linejoin="round" stroke-width="2"/>
      <line id="Line_73" data-name="Line 73" x2="2.372" y2="2.378" transform="translate(243.193 177.728)" fill="none" stroke="#ffbb1d" stroke-linecap="round" stroke-linejoin="round" stroke-width="2"/>
      <line id="Line_74" data-name="Line 74" x2="4.6" transform="translate(228.862 166.729)" fill="none" stroke="#ffbb1d" stroke-linecap="round" stroke-linejoin="round" stroke-width="2"/>
      <line id="Line_75" data-name="Line 75" x2="10.41" transform="translate(225.858 183.692)" fill="none" stroke="#ffbb1d" stroke-linecap="round" stroke-linejoin="round" stroke-width="2"/>
      <line id="Line_76" data-name="Line 76" x2="10.41" transform="translate(225.858 186.054)" fill="none" stroke="#ffbb1d" stroke-linecap="round" stroke-linejoin="round" stroke-width="2"/>
      <line id="Line_77" data-name="Line 77" x2="4.287" transform="translate(228.92 188.335)" fill="none" stroke="#ffbb1d" stroke-linecap="round" stroke-linejoin="round" stroke-width="2"/>
    </g>
  </g>
</svg>
