<svg xmlns="http://www.w3.org/2000/svg" width="78" height="78" viewBox="0 0 78 78">
  <g id="Group_2821" data-name="Group 2821" transform="translate(-404 -1728)">
    <g id="Group_2772" data-name="Group 2772" transform="translate(359.758 1832.754)">
      <path id="Path_4407" data-name="Path 4407" d="M88.276-84.031a20.259,20.259,0,0,1,14.265,24.845A20.258,20.258,0,0,1,77.695-44.922,20.257,20.257,0,0,1,63.431-69.767,20.258,20.258,0,0,1,88.276-84.031Z" fill="#005ae2" stroke="rgba(0,0,0,0)" stroke-width="1" opacity="0.2"/>
      <path id="Path_4408" data-name="Path 4408" d="M84.258-63.993l18.571-11.3a1.854,1.854,0,0,0,.6-2.66,25.536,25.536,0,0,0-12.26-9.234,1.855,1.855,0,0,0-2.39,1.313L83.092-64.869C82.809-63.82,83.331-63.428,84.258-63.993Z" fill="#005ae2" stroke="rgba(0,0,0,0)" stroke-width="1"/>
    </g>
    <rect id="Rectangle_4370" data-name="Rectangle 4370" width="78" height="78" transform="translate(404 1728)" fill="none"/>
  </g>
</svg>
