<svg xmlns="http://www.w3.org/2000/svg" width="21.296" height="21.296" viewBox="0 0 21.296 21.296">
  <path id="arrow-icon" d="M1969.647-534.495A10.648,10.648,0,0,0,1959-523.847a10.648,10.648,0,0,0,10.648,10.648,10.648,10.648,0,0,0,10.648-10.648A10.648,10.648,0,0,0,1969.647-534.495Zm5.08,12.731a1.2,1.2,0,0,1-1.2,1.2,1.2,1.2,0,0,1-1.2-1.2v-3.09l-5.729,5.729a1.192,1.192,0,0,1-.845.35,1.191,1.191,0,0,1-.845-.35,1.2,1.2,0,0,1,0-1.691l5.7-5.7-2.987-.008a1.2,1.2,0,0,1-1.192-1.2,1.2,1.2,0,0,1,1.2-1.192h0l5.708.016a1.187,1.187,0,0,1,.873.221,1.221,1.221,0,0,1,.123.1l.016.013.005.006a1.191,1.191,0,0,1,.362.856Z" transform="translate(-1958.999 534.495)" fill="#ffbb1d"/>
</svg>
