<svg xmlns="http://www.w3.org/2000/svg" width="78" height="78" viewBox="0 0 78 78">
  <g id="Group_2819" data-name="Group 2819" transform="translate(-404 -313)">
    <g id="Group_2774" data-name="Group 2774" transform="translate(248.668 216.293)">
      <path id="Path_4409" data-name="Path 4409" d="M184.462,131.291l-1.529,6.208a31.007,31.007,0,0,0-.774,3.978s0,2.356,1.675,2.853a2.593,2.593,0,0,0,.814.132,5.8,5.8,0,0,0,4.123-2.257,11.463,11.463,0,0,0,1.9-3.667s.132-.5.589-.5c0,0,.543,0,.543.457a6.876,6.876,0,0,1-1.4,3.256s-2.442,3.713-5.838,3.713a5.415,5.415,0,0,1-4.487-2.581,3.516,3.516,0,0,1-.4-.86,7.3,7.3,0,0,1-3,3.031,4.666,4.666,0,0,1-1.754.41s-2.72,0-3.806-1.582a2.5,2.5,0,0,1-.457-1.4,2.735,2.735,0,0,1,1.449-2.356,2.5,2.5,0,0,1,1.039-.271s1.357,0,1.635,1.132a2.971,2.971,0,0,1,.04.45,2.641,2.641,0,0,1-1.529,2.264,2.225,2.225,0,0,1-.6.185,4.715,4.715,0,0,0,2.27.582s2.389,0,3.8-3.21a15.664,15.664,0,0,0,.5-1.489s2.442-9.239,2.442-10.775c0,0-.271-2.806-2.442-3.038a6,6,0,0,0-4.3,2.4v.04s0,.053-.046.053a12.8,12.8,0,0,0-1.231,2.078s-.225.543-.4,1.085l-.1.271a.608.608,0,0,1-.582.5s-.549,0-.549-.45a6.746,6.746,0,0,1,1.45-3.256s2.449-3.72,5.844-3.72a5.534,5.534,0,0,1,4.891,3.442s1.443-2.806,3.845-3.349a5.122,5.122,0,0,1,.9-.093s2.674,0,3.759,1.5a2.8,2.8,0,0,1,.457,1.489,2.755,2.755,0,0,1-1.674,2.489,2.849,2.849,0,0,1-.774.139,1.723,1.723,0,0,1-1.674-1.224,1.89,1.89,0,0,1-.04-.357,2.632,2.632,0,0,1,1.31-2.131,3.132,3.132,0,0,1,.86-.318,4.7,4.7,0,0,0-2.263-.589s-3.078,0-4.342,4.8A3.565,3.565,0,0,0,184.462,131.291Z" transform="translate(0 0)" fill="#005ae2"/>
      <path id="Path_4411" data-name="Path 4411" d="M199.07,127.717l-4.342,17.294a14.044,14.044,0,0,1-4.851,7.194,11.159,11.159,0,0,1-5.745,2.039s-3.031,0-4.3-2.078a4.137,4.137,0,0,1-.5-1.86s0-2.3,1.86-2.846a2.968,2.968,0,0,1,.675-.1s1.449,0,1.628,1.264a1.17,1.17,0,0,1,.046.318,2.712,2.712,0,0,1-.907,1.86,3.1,3.1,0,0,1-1.946.543,3.633,3.633,0,0,0,3.448,1.906,6.772,6.772,0,0,0,4.977-2.853,19.585,19.585,0,0,0,2.806-6.387l.139-.589a7.369,7.369,0,0,1-4.573,2.038s-3.627,0-4.937-2.667a6.692,6.692,0,0,1-.589-2.72s0-2.489,2.4-8.915c0,0,.093-.271.225-.589a13.029,13.029,0,0,0,.774-3.17s0-1.449-1.132-1.449c0,0-2.489,0-4.077,4.123v.046s-.278.675-.5,1.443c0,0-.5.768-.721.814,0,0-.543,0-.543-.45a8.19,8.19,0,0,1,.946-2.853s1.992-4.123,5.03-4.123a3.876,3.876,0,0,1,3.349,2.039,4.378,4.378,0,0,1,.364,1.681,10.59,10.59,0,0,1-.907,3.256s-2.31,5.977-2.31,8.875c0,0,0,3.66,2.806,3.66a6.027,6.027,0,0,0,4.573-2.8,4.814,4.814,0,0,0,.543-1.046l2.032-8.147s.324-1.5.913-3.62c0,0,.45-1.946.635-2.449a2.075,2.075,0,0,1,1.582-.953,1.714,1.714,0,0,1,1.31,1.224A4.233,4.233,0,0,1,199.07,127.717Z" transform="translate(18.76 0)" fill="#005ae2"/>
    </g>
    <rect id="Rectangle_4367" data-name="Rectangle 4367" width="78" height="78" transform="translate(404 313)" fill="none"/>
  </g>
</svg>
